<svg width="61" height="71" viewBox="0 0 61 71" fill="none" xmlns="http://www.w3.org/2000/svg">
<path d="M27.9297 70.3403C28.5661 70.7693 29.3286 71 30.1107 71C30.8927 71 31.6553 70.7693 32.2917 70.3403C33.4348 69.577 60.3027 51.2624 60.1937 28.4002C60.1937 12.7411 46.6977 0 30.1107 0C13.5237 0 0.0276748 12.7411 0.0276748 28.3825C-0.0813761 51.2624 26.7865 69.577 27.9297 70.3403ZM30.1107 7.10006C42.5538 7.10006 52.6729 16.6532 52.6729 28.418C52.7519 44.173 36.1724 58.3199 30.1107 62.9598C24.0527 58.3163 7.46946 44.1659 7.54843 28.4002C7.54843 16.6532 17.6676 7.10006 30.1107 7.10006Z" fill="white"/>
<path d="M30.1112 42C38.5522 42 45.4168 35.721 45.4168 28C45.4168 20.279 38.5522 14 30.1112 14C21.6702 14 14.8057 20.279 14.8057 28C14.8057 35.721 21.6702 42 30.1112 42ZM30.1112 21C34.3317 21 37.764 24.1395 37.764 28C37.764 31.8605 34.3317 35 30.1112 35C25.8907 35 22.4584 31.8605 22.4584 28C22.4584 24.1395 25.8907 21 30.1112 21Z" fill="white"/>
</svg>
